/* XPM */
static char *square_eye[] = {
/* columns rows colors chars-per-pixel */
"240 60 3 1",
"  c #FFFFFF",
"! c #FF0000",
"# c #0000FF",
/* pixels */
"!!!!!!!!!!!!!!!!!!!!!!!!!!!!!!!!!!!!!!!!!!!!!!!!!!!!!!!!!!!!!!!!!!!!!!!!!!!!!!!!!!!!!!!!!!!!!!!!!!!!!!!!!!!!!!!!!!!!!!!!!!!!!!!!!!!!!!!!!!!!!!!!!!!!!!!!!!!!!!!!!!!!!!!!!!!!!!!!!!!!!!!!!!!!!!!!!!!!!!!!!!!!!!!!!!!!!!!!!!!!!!!!!!!!!!!!!!!!!!!!",
"!!!!!!!!!!!!!!!!!!!!!!!!!!!!!!!!!!!!!!!!!!!!!!!!!!!!!!!!!!!!!!!!!!!!!!!!!!!!!!!!!!!!!!!!!!!!!!!!!!!!!!!!!!!!!!!!!!!!!!!!!!!!!!!!!!!!!!!!!!!!!!!!!!!!!!!!!!!!!!!!!!!!!!!!!!!!!!!!!!!!!!!!!!!!!!!!!!!!!!!!!!!!!!!!!!!!!!!!!!!!!!!!!!!!!!!!!!!!!!!!",
"!!!!!!!!!!!!!!!!!!!!!!!!!!!!!!!!!!!!!!!!!!!!!!!!!!!!!!!!!!!!!!!!!!!!!!!!!!!!!!!!!!!!!!!!!!!!!!!!!!!!!!!!!!!!!!!!!!!!!!!!!!!!!!!!!!!!!!!!!!!!!!!!!!!!!!!!!!!!!!!!!!!!!!!!!!!!!!!!!!!!!!!!!!!!!!!!!!!!!!!!!!!!!!!!!!!!!!!!!!!!!!!!!!!!!!!!!!!!!!!!",
"!!!!!!!!!!!!!!!!!!!!!!!!!!!!!!!!!!!!!!!!!!!!!!!!!!!!!!!!!!!!!!!!!!!!!!!!!!!!!!!!!!!!!!!!!!!!!!!!!!!!!!!!!!!!!!!!!!!!!!!!!!!!!!!!!!!!!!!!!!!!!!!!!!!!!!!!!!!!!!!!!!!!!!!!!!!!!!!!!!!!!!!!!!!!!!!!!!!!!!!!!!!!!!!!!!!!!!!!!!!!!!!!!!!!!!!!!!!!!!!!",
"!!!!!!!!!!!!!!!!!!!!!!!!!!!!!!!!!!!!!!!!!!!!!!!!!!!!!!!!!!!!!!!!!!!!!!!!!!!!!!!!!!!!!!!!!!!!!!!!!!!!!!!!!!!!!!!!!!!!!!!!!!!!!!!!!!!!!!!!!!!!!!!!!!!!!!!!!!!!!!!!!!!!!!!!!!!!!!!!!!!!!!!!!!!!!!!!!!!!!!!!!!!!!!!!!!!!!!!!!!!!!!!!!!!!!!!!!!!!!!!!",
"!!!!!                                                                                                                                                                                                                                      !!!!!",
"!!!!!                                                                                                                                                                                                                                      !!!!!",
"!!!!!                                                                                                                                                                                                                                      !!!!!",
"!!!!!                                                                                                                                                                                                                                      !!!!!",
"!!!!!                                                                                                                                                                                                                                      !!!!!",
"!!!!!                                                                                                                                                                                                                                      !!!!!",
"!!!!!                                                                                                #######################################                                                                                               !!!!!",
"!!!!!                                                                                                #######################################                                                                                               !!!!!",
"!!!!!                                                                                                #######################################                                                                                               !!!!!",
"!!!!!                                                                                                #######################################                                                                                               !!!!!",
"!!!!!                                                                                                #######################################                                                                                               !!!!!",
"!!!!!                                                                                                #######################################                                                                                               !!!!!",
"!!!!!                                                                                                #######################################                                                                                               !!!!!",
"!!!!!                                                                                                #######################################                                                                                               !!!!!",
"!!!!!                                                                                                #######################################                                                                                               !!!!!",
"!!!!!                                                                                                #######################################                                                                                               !!!!!",
"!!!!!                                                                                                #######################################                                                                                               !!!!!",
"!!!!!                                                                                                #######################################                                                                                               !!!!!",
"!!!!!                                                                                                #######################################                                                                                               !!!!!",
"!!!!!                                                                                                #######################################                                                                                               !!!!!",
"!!!!!                                                                                                #######################################                                                                                               !!!!!",
"!!!!!                                                                                                #######################################                                                                                               !!!!!",
"!!!!!                                                                                                #######################################                                                                                               !!!!!",
"!!!!!                                                                                                #######################################                                                                                               !!!!!",
"!!!!!                                                                                                #######################################                                                                                               !!!!!",
"!!!!!                                                                                                #######################################                                                                                               !!!!!",
"!!!!!                                                                                                #######################################                                                                                               !!!!!",
"!!!!!                                                                                                #######################################                                                                                               !!!!!",
"!!!!!                                                                                                #######################################                                                                                               !!!!!",
"!!!!!                                                                                                #######################################                                                                                               !!!!!",
"!!!!!                                                                                                #######################################                                                                                               !!!!!",
"!!!!!                                                                                                #######################################                                                                                               !!!!!",
"!!!!!                                                                                                #######################################                                                                                               !!!!!",
"!!!!!                                                                                                #######################################                                                                                               !!!!!",
"!!!!!                                                                                                #######################################                                                                                               !!!!!",
"!!!!!                                                                                                #######################################                                                                                               !!!!!",
"!!!!!                                                                                                #######################################                                                                                               !!!!!",
"!!!!!                                                                                                #######################################                                                                                               !!!!!",
"!!!!!                                                                                                #######################################                                                                                               !!!!!",
"!!!!!                                                                                                #######################################                                                                                               !!!!!",
"!!!!!                                                                                                #######################################                                                                                               !!!!!",
"!!!!!                                                                                                #######################################                                                                                               !!!!!",
"!!!!!                                                                                                #######################################                                                                                               !!!!!",
"!!!!!                                                                                                #######################################                                                                                               !!!!!",
"!!!!!                                                                                                #######################################                                                                                               !!!!!",
"!!!!!                                                                                                                                                                                                                                      !!!!!",
"!!!!!                                                                                                                                                                                                                                      !!!!!",
"!!!!!                                                                                                                                                                                                                                      !!!!!",
"!!!!!                                                                                                                                                                                                                                      !!!!!",
"!!!!!                                                                                                                                                                                                                                      !!!!!",
"!!!!!!!!!!!!!!!!!!!!!!!!!!!!!!!!!!!!!!!!!!!!!!!!!!!!!!!!!!!!!!!!!!!!!!!!!!!!!!!!!!!!!!!!!!!!!!!!!!!!!!!!!!!!!!!!!!!!!!!!!!!!!!!!!!!!!!!!!!!!!!!!!!!!!!!!!!!!!!!!!!!!!!!!!!!!!!!!!!!!!!!!!!!!!!!!!!!!!!!!!!!!!!!!!!!!!!!!!!!!!!!!!!!!!!!!!!!!!!!!",
"!!!!!!!!!!!!!!!!!!!!!!!!!!!!!!!!!!!!!!!!!!!!!!!!!!!!!!!!!!!!!!!!!!!!!!!!!!!!!!!!!!!!!!!!!!!!!!!!!!!!!!!!!!!!!!!!!!!!!!!!!!!!!!!!!!!!!!!!!!!!!!!!!!!!!!!!!!!!!!!!!!!!!!!!!!!!!!!!!!!!!!!!!!!!!!!!!!!!!!!!!!!!!!!!!!!!!!!!!!!!!!!!!!!!!!!!!!!!!!!!",
"!!!!!!!!!!!!!!!!!!!!!!!!!!!!!!!!!!!!!!!!!!!!!!!!!!!!!!!!!!!!!!!!!!!!!!!!!!!!!!!!!!!!!!!!!!!!!!!!!!!!!!!!!!!!!!!!!!!!!!!!!!!!!!!!!!!!!!!!!!!!!!!!!!!!!!!!!!!!!!!!!!!!!!!!!!!!!!!!!!!!!!!!!!!!!!!!!!!!!!!!!!!!!!!!!!!!!!!!!!!!!!!!!!!!!!!!!!!!!!!!",
"!!!!!!!!!!!!!!!!!!!!!!!!!!!!!!!!!!!!!!!!!!!!!!!!!!!!!!!!!!!!!!!!!!!!!!!!!!!!!!!!!!!!!!!!!!!!!!!!!!!!!!!!!!!!!!!!!!!!!!!!!!!!!!!!!!!!!!!!!!!!!!!!!!!!!!!!!!!!!!!!!!!!!!!!!!!!!!!!!!!!!!!!!!!!!!!!!!!!!!!!!!!!!!!!!!!!!!!!!!!!!!!!!!!!!!!!!!!!!!!!",
"!!!!!!!!!!!!!!!!!!!!!!!!!!!!!!!!!!!!!!!!!!!!!!!!!!!!!!!!!!!!!!!!!!!!!!!!!!!!!!!!!!!!!!!!!!!!!!!!!!!!!!!!!!!!!!!!!!!!!!!!!!!!!!!!!!!!!!!!!!!!!!!!!!!!!!!!!!!!!!!!!!!!!!!!!!!!!!!!!!!!!!!!!!!!!!!!!!!!!!!!!!!!!!!!!!!!!!!!!!!!!!!!!!!!!!!!!!!!!!!!",
};
